<?xml version="1.0" encoding="UTF-8"?>
<!-- Generator: Adobe Illustrator 17.0.0, SVG Export Plug-In . SVG Version: 6.00 Build 0)  -->
<!DOCTYPE svg PUBLIC "-//W3C//DTD SVG 1.1//EN" "http://www.w3.org/Graphics/SVG/1.1/DTD/svg11.dtd">
<svg version="1.1" id="Capa_1" xmlns="http://www.w3.org/2000/svg" xmlns:xlink="http://www.w3.org/1999/xlink" x="0px" y="0px" width="295.25px" height="53px" viewBox="0 0 295.25 53" enable-background="new 0 0 295.25 53" xml:space="preserve">
<linearGradient id="SVGID_1_" gradientUnits="userSpaceOnUse" x1="81.0188" y1="1" x2="81.0188" y2="47.25">
	<stop offset="0" style="stop-color:#AAAAAA"/>
	<stop offset="0.0638" style="stop-color:#BFBFBF"/>
	<stop offset="0.1532" style="stop-color:#D6D6D6"/>
	<stop offset="0.2577" style="stop-color:#E7E7E7"/>
	<stop offset="0.3852" style="stop-color:#F3F3F3"/>
	<stop offset="0.5598" style="stop-color:#FAFAFA"/>
	<stop offset="1" style="stop-color:#FCFCFC"/>
</linearGradient>
<path fill-rule="evenodd" clip-rule="evenodd" fill="url(#SVGID_1_)" d="M91.019,33.94c0-1.42-0.47-2.58-1.37-3.46L77.019,18.5V12h8  v7h6V9.22c0-1.97-1.09-3.05-3.27-3.22h-13.46c-2.19,0.17-3.27,1.27-3.27,3.27v9.29c0,1.38,0.45,2.52,1.38,3.39L85.019,34v7h-8v-7h-6  v9.73c0,2.02,1.08,3.11,3.27,3.27h13.46c2.18-0.16,3.27-1.25,3.27-3.27V33.94z"/>
<linearGradient id="SVGID_2_" gradientUnits="userSpaceOnUse" x1="106.0188" y1="1" x2="106.0188" y2="47.25">
	<stop offset="0" style="stop-color:#AAAAAA"/>
	<stop offset="0.0638" style="stop-color:#BFBFBF"/>
	<stop offset="0.1532" style="stop-color:#D6D6D6"/>
	<stop offset="0.2577" style="stop-color:#E7E7E7"/>
	<stop offset="0.3852" style="stop-color:#F3F3F3"/>
	<stop offset="0.5598" style="stop-color:#FAFAFA"/>
	<stop offset="1" style="stop-color:#FCFCFC"/>
</linearGradient>
<path fill-rule="evenodd" clip-rule="evenodd" fill="url(#SVGID_2_)" d="M102.019,26V12h8v14H102.019z M116.019,9.27  c-0.17-2-1.27-3.1-3.27-3.27h-16.73v41h6V32h10.73c2-0.16,3.1-1.25,3.27-3.27V9.27z"/>
<linearGradient id="SVGID_3_" gradientUnits="userSpaceOnUse" x1="129.0113" y1="1" x2="129.0113" y2="47.25">
	<stop offset="0" style="stop-color:#AAAAAA"/>
	<stop offset="0.0638" style="stop-color:#BFBFBF"/>
	<stop offset="0.1532" style="stop-color:#D6D6D6"/>
	<stop offset="0.2577" style="stop-color:#E7E7E7"/>
	<stop offset="0.3852" style="stop-color:#F3F3F3"/>
	<stop offset="0.5598" style="stop-color:#FAFAFA"/>
	<stop offset="1" style="stop-color:#FCFCFC"/>
</linearGradient>
<path fill-rule="evenodd" clip-rule="evenodd" fill="url(#SVGID_3_)" d="M140.019,6h-6l-4.97,17.77L124.019,6h-6  c-0.02,0.14-0.02,0.22,0,0.23l5.33,17.14c0.06,0.22,0.56,1.65,1.48,4.24c0.5,1.53,0.91,2.97,1.19,4.33V47h6V31.94  c1.11-4.02,2-6.88,2.66-8.57l5.34-17.14V6z"/>
<linearGradient id="SVGID_4_" gradientUnits="userSpaceOnUse" x1="154.5188" y1="1" x2="154.5188" y2="47.25">
	<stop offset="0" style="stop-color:#AAAAAA"/>
	<stop offset="0.0638" style="stop-color:#BFBFBF"/>
	<stop offset="0.1532" style="stop-color:#D6D6D6"/>
	<stop offset="0.2577" style="stop-color:#E7E7E7"/>
	<stop offset="0.3852" style="stop-color:#F3F3F3"/>
	<stop offset="0.5598" style="stop-color:#FAFAFA"/>
	<stop offset="1" style="stop-color:#FCFCFC"/>
</linearGradient>
<path fill-rule="evenodd" clip-rule="evenodd" fill="url(#SVGID_4_)" d="M158.329,28c2,0,3.33-0.11,3.96-0.34  c1.15-0.6,1.73-1.58,1.73-2.93V9.27c0-2-1.09-3.1-3.27-3.27h-16.73v41h6V12h8v12h-6v3.73l7,19.27h6L158.329,28z"/>
<linearGradient id="SVGID_5_" gradientUnits="userSpaceOnUse" x1="179.0188" y1="1" x2="179.0188" y2="47.25">
	<stop offset="0" style="stop-color:#AAAAAA"/>
	<stop offset="0.0638" style="stop-color:#BFBFBF"/>
	<stop offset="0.1532" style="stop-color:#D6D6D6"/>
	<stop offset="0.2577" style="stop-color:#E7E7E7"/>
	<stop offset="0.3852" style="stop-color:#F3F3F3"/>
	<stop offset="0.5598" style="stop-color:#FAFAFA"/>
	<stop offset="1" style="stop-color:#FCFCFC"/>
</linearGradient>
<path fill-rule="evenodd" clip-rule="evenodd" fill="url(#SVGID_5_)" d="M175.019,41V12h8v29H175.019z M189.019,9.27  c-0.17-2-1.27-3.1-3.27-3.27h-13.46c-2.02,0.17-3.11,1.27-3.27,3.27v34.46c0.16,2.02,1.25,3.11,3.27,3.27h13.46  c2-0.16,3.1-1.25,3.27-3.27V9.27z"/>
<path fill-rule="evenodd" clip-rule="evenodd" fill="#00AFFB" d="M20.729,18.84c1.29-0.47,3.02,0.22,3.91,1.53  c0.88,1.31,0.7,2.71-0.56,3.23c0,0-2.19-1.07-3.35-0.61c-1.21,0.48-1.24,2.45-1.24,2.45c-1.38,0.56-3.15-0.08-4.08-1.49  c-0.93-1.41-0.36-2.97,1.04-3.48c0,0,1.74,1.19,3.06,0.69C20.909,20.63,20.729,18.84,20.729,18.84z"/>
<path fill-rule="evenodd" clip-rule="evenodd" fill="#00AFFB" d="M22.659,16.47c1.9-0.68,4.47,0.37,5.8,2.33  c1.34,1.97,0.96,4.19-0.89,4.97c-1.9,0.81-4.62-0.22-6.01-2.3C20.179,19.4,20.699,17.16,22.659,16.47z"/>
<path fill-rule="evenodd" clip-rule="evenodd" fill="#00AFFB" d="M12.339,20.11c2.2-0.78,5.07,0.31,6.47,2.43  c1.41,2.12,0.87,4.58-1.28,5.49c-2.22,0.94-5.27-0.12-6.74-2.39C9.339,23.39,10.059,20.91,12.339,20.11z"/>
<path fill-rule="evenodd" clip-rule="evenodd" fill="#FFFFFF" d="M30.959,14.43c1.27,0.85,1.87,2.32,1.35,3.3  c-0.54,1-1.9,1.19-3.21,0.32c0,0-0.54-1.92-1.7-2.69c-1.2-0.8-2.92-0.38-2.92-0.38c-1.35-0.89-1.9-2.32-1.27-3.28  c0.62-0.95,2.28-0.89,3.58-0.01c0,0,0.1,1.5,1.38,2.36C29.549,14.96,30.959,14.43,30.959,14.43z"/>
<path fill-rule="evenodd" clip-rule="evenodd" fill="#FFFFFF" d="M34.299,15.33c1.92,1.29,2.86,3.53,2.11,5.06  c-0.77,1.57-3.03,1.81-5.06,0.48c-2.04-1.33-2.97-3.7-2.09-5.23C30.109,14.15,32.369,14.03,34.299,15.33z"/>
<path fill-rule="evenodd" clip-rule="evenodd" fill="#FFFFFF" d="M24.539,8.93c2.01,1.34,2.9,3.6,2,5.07  c-0.92,1.52-3.39,1.66-5.51,0.27c-2.14-1.4-3.02-3.77-1.98-5.25C20.069,7.59,22.519,7.57,24.539,8.93z"/>
<path fill-rule="evenodd" clip-rule="evenodd" fill="#00AFFB" d="M41.509,21.43c0.23,1.27-0.63,2.15-1.93,1.95  c-1.32-0.21-2.52-1.29-2.72-2.59c0,0,1.31-0.9,1.13-2.01c-0.19-1.13-1.8-2.36-1.8-2.36c-0.19-1.23,0.64-1.96,1.92-1.71  c1.26,0.25,2.42,1.51,2.64,2.72c0,0-1.24,0.43-1.03,1.65C39.949,20.41,41.509,21.43,41.509,21.43z"/>
<path fill-rule="evenodd" clip-rule="evenodd" fill="#00AFFB" d="M43.339,24.47c0.37,2-0.94,3.44-2.97,3.17  c-2.08-0.27-4.05-2.21-4.37-4.28c-0.31-2.03,1.11-3.37,3.13-3.03C41.109,20.67,42.979,22.5,43.339,24.47z"/>
<path fill-rule="evenodd" clip-rule="evenodd" fill="#00AFFB" d="M41.589,15.04c0.34,1.84-0.94,3.06-2.9,2.71  c-2-0.37-3.9-2.23-4.19-4.12c-0.28-1.86,1.1-2.99,3.05-2.57C39.459,11.47,41.259,13.24,41.589,15.04z"/>
<path fill-rule="evenodd" clip-rule="evenodd" fill="#FFFFFF" d="M43.679,33.4c-1.03,0.59-2.6,0.01-3.49-1.29  c-0.89-1.29-0.82-2.7,0.23-3.24c0,0,1.93,0.95,2.82,0.48c0.9-0.48,0.71-2.26,0.71-2.26c0.98-0.5,2.34,0.04,3.19,1.26  c0.84,1.21,0.65,2.64-0.31,3.18c0,0-1.46-1.03-2.43-0.5C43.329,31.62,43.679,33.4,43.679,33.4z"/>
<path fill-rule="evenodd" clip-rule="evenodd" fill="#FFFFFF" d="M42.289,36.08c-1.66,0.97-4.18,0.09-5.58-1.99  c-1.4-2.06-1.1-4.44,0.61-5.29c1.66-0.84,4.05,0.08,5.4,2.03C44.059,32.79,43.889,35.14,42.289,36.08z"/>
<path fill-rule="evenodd" clip-rule="evenodd" fill="#FFFFFF" d="M49.839,31.65c-1.44,0.84-3.72-0.02-5.05-1.94  c-1.32-1.92-1.15-4.08,0.34-4.83c1.45-0.72,3.62,0.17,4.89,1.98C51.299,28.69,51.239,30.83,49.839,31.65z"/>
<path fill-rule="evenodd" clip-rule="evenodd" fill="#00AFFB" d="M34.289,38.67c-1.42-0.87-2.09-2.62-1.51-3.87  c0.57-1.23,1.98-1.57,3.34-0.71c0,0,0.63,2.17,1.83,2.92c1.23,0.77,2.82,0.05,2.82,0.05c1.32,0.84,1.97,2.41,1.5,3.67  c-0.49,1.28-2.1,1.52-3.47,0.67c0,0-0.21-1.86-1.56-2.7C35.769,37.79,34.289,38.67,34.289,38.67z"/>
<path fill-rule="evenodd" clip-rule="evenodd" fill="#00AFFB" d="M30.489,38.06c-2.24-1.38-3.26-4.11-2.28-6.03  c0.96-1.87,3.44-2.25,5.55-0.91c2.09,1.33,3.12,3.9,2.3,5.81C35.209,38.89,32.719,39.42,30.489,38.06z"/>
<path fill-rule="evenodd" clip-rule="evenodd" fill="#00AFFB" d="M41.299,44.69c-2.14-1.31-3.21-4.02-2.41-5.99  c0.78-1.92,3.04-2.39,5.06-1.11c1.99,1.27,3.07,3.83,2.4,5.77C45.669,45.36,43.409,45.99,41.299,44.69z"/>
<path fill-rule="evenodd" clip-rule="evenodd" fill="#FFFFFF" d="M21.829,31.45c-0.13-1.54,1.08-2.63,2.68-2.44  c1.57,0.18,2.91,1.37,3.08,2.88c0,0-1.65,1.2-1.51,2.57c0.15,1.42,2.06,2.79,2.06,2.79c0.18,1.6-0.91,2.74-2.55,2.64  c-1.67-0.11-3.11-1.68-3.25-3.32c0,0,1.71-0.75,1.56-2.31C23.739,32.6,21.829,31.45,21.829,31.45z"/>
<path fill-rule="evenodd" clip-rule="evenodd" fill="#FFFFFF" d="M19.839,27.84c-0.18-2.31,1.69-3.88,4.12-3.55  c2.38,0.33,4.48,2.37,4.74,4.6c0.27,2.28-1.46,3.97-3.92,3.73C22.269,32.38,20.029,30.21,19.839,27.84z"/>
<path fill-rule="evenodd" clip-rule="evenodd" fill="#FFFFFF" d="M20.809,40.11c-0.21-2.58,1.74-4.45,4.29-4.24  c2.49,0.2,4.7,2.33,4.99,4.8c0.29,2.53-1.5,4.53-4.08,4.44C23.379,45,21.009,42.74,20.809,40.11z"/>
<path fill-rule="evenodd" clip-rule="evenodd" fill="#00AFFB" d="M2.019,27.09c0-1.59,1.51-2.68,3.35-2.45  c1.81,0.23,3.29,1.65,3.33,3.2c0.05,1.58-1.39,2.72-3.25,2.54C3.569,30.19,2.019,28.71,2.019,27.09z"/>
<path fill-rule="evenodd" clip-rule="evenodd" fill="#FFFFFF" d="M23.409,49.77c-0.15-1.75,1.1-3.1,2.76-3.05  c1.64,0.05,3.1,1.45,3.29,3.14c0.19,1.73-0.99,3.14-2.67,3.14C25.089,53,23.569,51.54,23.409,49.77z"/>
<path fill-rule="evenodd" clip-rule="evenodd" fill="#00AFFB" d="M47.499,46.88c-0.28-1.5,0.56-2.66,1.85-2.59  c1.27,0.06,2.52,1.28,2.82,2.75c0.31,1.49-0.48,2.68-1.77,2.66C49.089,49.68,47.789,48.41,47.499,46.88z"/>
<path fill-rule="evenodd" clip-rule="evenodd" fill="#FFFFFF" d="M51.939,27.77c-0.27-1.22,0.42-2.06,1.53-1.89  c1.09,0.16,2.2,1.26,2.48,2.45c0.29,1.21-0.36,2.08-1.47,1.94C53.359,30.13,52.209,29,51.939,27.77z"/>
<path fill-rule="evenodd" clip-rule="evenodd" fill="#00AFFB" d="M34.699,6.65c-0.17-1.09,0.67-1.72,1.86-1.43  c1.18,0.29,2.28,1.38,2.48,2.45c0.19,1.08-0.61,1.75-1.81,1.48C36.009,8.88,34.869,7.75,34.699,6.65z"/>
<path fill-rule="evenodd" clip-rule="evenodd" fill="#FFFFFF" d="M12.669,4.66c-0.06-1.22,1.11-1.92,2.61-1.57  c1.47,0.34,2.73,1.57,2.82,2.76c0.1,1.21-1.03,1.95-2.53,1.63C14.039,7.16,12.739,5.89,12.669,4.66z"/>
<linearGradient id="SVGID_6_" gradientUnits="userSpaceOnUse" x1="205.8987" y1="7.4001" x2="206.1487" y2="47.1501">
	<stop offset="0" style="stop-color:#0888C1"/>
	<stop offset="0.0996" style="stop-color:#078ECA"/>
	<stop offset="0.4209" style="stop-color:#039DE0"/>
	<stop offset="0.7271" style="stop-color:#01A7ED"/>
	<stop offset="1" style="stop-color:#00AAF2"/>
</linearGradient>
<polygon fill-rule="evenodd" clip-rule="evenodd" fill="url(#SVGID_6_)" points="216.019,6 210.019,6 210.019,23 202.019,23   202.019,6 196.019,6 196.019,47 202.019,47 202.019,29 210.019,29 210.019,47 216.019,47 "/>
<linearGradient id="SVGID_7_" gradientUnits="userSpaceOnUse" x1="231.8977" y1="7.2366" x2="232.1477" y2="46.9866">
	<stop offset="0" style="stop-color:#0888C1"/>
	<stop offset="0.0996" style="stop-color:#078ECA"/>
	<stop offset="0.4209" style="stop-color:#039DE0"/>
	<stop offset="0.7271" style="stop-color:#01A7ED"/>
	<stop offset="1" style="stop-color:#00AAF2"/>
</linearGradient>
<path fill-rule="evenodd" clip-rule="evenodd" fill="url(#SVGID_7_)" d="M228.019,41V12h8v29H228.019z M242.019,9.27  c-0.17-2-1.27-3.1-3.27-3.27h-13.46c-2.02,0.17-3.11,1.27-3.27,3.27v34.46c0.16,2.02,1.25,3.11,3.27,3.27h13.46  c2-0.16,3.1-1.25,3.27-3.27V9.27z"/>
<linearGradient id="SVGID_8_" gradientUnits="userSpaceOnUse" x1="257.8968" y1="7.0731" x2="258.1468" y2="46.8231">
	<stop offset="0" style="stop-color:#0888C1"/>
	<stop offset="0.0996" style="stop-color:#078ECA"/>
	<stop offset="0.4209" style="stop-color:#039DE0"/>
	<stop offset="0.7271" style="stop-color:#01A7ED"/>
	<stop offset="1" style="stop-color:#00AAF2"/>
</linearGradient>
<path fill-rule="evenodd" clip-rule="evenodd" fill="url(#SVGID_8_)" d="M268.019,33.94c0-1.42-0.47-2.58-1.37-3.46l-12.63-11.98V12  h8v7h6V9.22c0-1.97-1.09-3.05-3.27-3.22h-13.46c-2.19,0.17-3.27,1.27-3.27,3.27v9.29c0,1.38,0.45,2.52,1.38,3.39L262.019,34v7h-8v-7  h-6v9.73c0,2.02,1.08,3.11,3.27,3.27h13.46c2.18-0.16,3.27-1.25,3.27-3.27V33.94z"/>
<linearGradient id="SVGID_9_" gradientUnits="userSpaceOnUse" x1="281.0058" y1="6.9278" x2="281.2558" y2="46.6778">
	<stop offset="0" style="stop-color:#0888C1"/>
	<stop offset="0.0996" style="stop-color:#078ECA"/>
	<stop offset="0.4209" style="stop-color:#039DE0"/>
	<stop offset="0.7271" style="stop-color:#01A7ED"/>
	<stop offset="1" style="stop-color:#00AAF2"/>
</linearGradient>
<polygon fill-rule="evenodd" clip-rule="evenodd" fill="url(#SVGID_9_)" points="291.019,6 271.019,6 271.019,12 278.019,12   278.019,47 284.019,47 284.019,12 291.019,12 "/>
</svg>